<svg xmlns="http://www.w3.org/2000/svg" xmlns:xlink="http://www.w3.org/1999/xlink" viewBox="0 0 29.07 27.77"><defs><style>.cls-1{fill:none;stroke:#640064;stroke-miterlimit:10;stroke-width:1.37px;}.cls-2{fill:url(#grad1);}</style><radialGradient id="grad1" cx="14.53" cy="14.05" r="13.8" gradientUnits="userSpaceOnUse"><stop offset="0" stop-color="#963296"/><stop offset="0.67" stop-color="#640064"/></radialGradient></defs><title>Ресурс 5</title><g id="layer_2" data-name="layer 2"><g id="layer_3" data-name="layer 3"><path class="cls-1" d="M15.1,1l3.79,7.68a.63.63,0,0,0,.48.35l8.47,1.23a.63.63,0,0,1,.35,1.08l-6.13,6a.63.63,0,0,0-.18.56l1.45,8.44a.63.63,0,0,1-.92.67l-7.58-4a.63.63,0,0,0-.59,0L6.66,27a.63.63,0,0,1-.92-.67l1.45-8.44A.63.63,0,0,0,7,17.35l-6.13-6a.63.63,0,0,1,.35-1.08L9.7,9.06a.63.63,0,0,0,.48-.35L14,1A.63.63,0,0,1,15.1,1Z"/><path class="cls-2" d="M15.58,1.21l3.46,7a1.17,1.17,0,0,0,.88.64L27.65,10a1.17,1.17,0,0,1,.65,2L22.7,17.43a1.17,1.17,0,0,0-.34,1l1.32,7.7A1.17,1.17,0,0,1,22,27.39l-6.91-3.64a1.17,1.17,0,0,0-1.09,0L7.07,27.39a1.17,1.17,0,0,1-1.7-1.23l1.32-7.7a1.17,1.17,0,0,0-.34-1L.77,12a1.17,1.17,0,0,1,.65-2L9.15,8.86A1.17,1.17,0,0,0,10,8.22l3.46-7A1.17,1.17,0,0,1,15.58,1.21Z"/></g></g></svg>